<mxfile host="app.diagrams.net" modified="2023-06-02T07:26:27.623Z" agent="Mozilla/5.0 (Windows NT 10.0; Win64; x64) AppleWebKit/537.36 (KHTML, like Gecko) Chrome/113.0.0.0 Safari/537.36" etag="Ru-BGxvvwh-11_YWiLIJ" version="21.3.2" type="github">
  <diagram name="第 1 页" id="5jfhSIbzBSS9mzldXUcM">
    <mxGraphModel dx="2074" dy="1124" grid="1" gridSize="10" guides="1" tooltips="1" connect="1" arrows="1" fold="1" page="1" pageScale="1" pageWidth="3300" pageHeight="4681" math="0" shadow="0">
      <root>
        <mxCell id="0" />
        <mxCell id="1" parent="0" />
        <mxCell id="vL32XNnwfDZ7PTR04bim-1" value="" style="rounded=0;whiteSpace=wrap;html=1;" vertex="1" parent="1">
          <mxGeometry x="110" y="380" width="310" height="200" as="geometry" />
        </mxCell>
        <mxCell id="vL32XNnwfDZ7PTR04bim-2" value="Servlet" style="text;html=1;strokeColor=none;fillColor=none;align=center;verticalAlign=middle;whiteSpace=wrap;rounded=0;" vertex="1" parent="1">
          <mxGeometry x="110" y="350" width="60" height="30" as="geometry" />
        </mxCell>
        <mxCell id="vL32XNnwfDZ7PTR04bim-4" value="request" style="rounded=1;whiteSpace=wrap;html=1;" vertex="1" parent="1">
          <mxGeometry x="130" y="402.5" width="120" height="107.5" as="geometry" />
        </mxCell>
        <mxCell id="vL32XNnwfDZ7PTR04bim-5" value="require" style="rounded=1;whiteSpace=wrap;html=1;" vertex="1" parent="1">
          <mxGeometry x="280" y="402.5" width="120" height="155" as="geometry" />
        </mxCell>
        <mxCell id="vL32XNnwfDZ7PTR04bim-6" value="" style="endArrow=classic;html=1;rounded=0;" edge="1" parent="1">
          <mxGeometry width="50" height="50" relative="1" as="geometry">
            <mxPoint x="264.5" y="580" as="sourcePoint" />
            <mxPoint x="264.5" y="640" as="targetPoint" />
          </mxGeometry>
        </mxCell>
        <mxCell id="vL32XNnwfDZ7PTR04bim-7" value="" style="rounded=0;whiteSpace=wrap;html=1;" vertex="1" parent="1">
          <mxGeometry x="110" y="640" width="310" height="200" as="geometry" />
        </mxCell>
        <mxCell id="vL32XNnwfDZ7PTR04bim-8" value="Servlet" style="text;html=1;strokeColor=none;fillColor=none;align=center;verticalAlign=middle;whiteSpace=wrap;rounded=0;" vertex="1" parent="1">
          <mxGeometry x="110" y="610" width="60" height="30" as="geometry" />
        </mxCell>
        <mxCell id="vL32XNnwfDZ7PTR04bim-9" value="request" style="rounded=1;whiteSpace=wrap;html=1;" vertex="1" parent="1">
          <mxGeometry x="130" y="662.5" width="120" height="157.5" as="geometry" />
        </mxCell>
        <mxCell id="vL32XNnwfDZ7PTR04bim-10" value="require" style="rounded=1;whiteSpace=wrap;html=1;" vertex="1" parent="1">
          <mxGeometry x="280" y="662.5" width="120" height="155" as="geometry" />
        </mxCell>
        <mxCell id="vL32XNnwfDZ7PTR04bim-12" value="deptList" style="rounded=1;whiteSpace=wrap;html=1;" vertex="1" parent="1">
          <mxGeometry x="140" y="780" width="100" height="30" as="geometry" />
        </mxCell>
        <mxCell id="vL32XNnwfDZ7PTR04bim-13" value="&lt;pre style=&quot;background-color:#282c34;color:#bbbbbb;font-family:&#39;Monaco&#39;,monospace;font-size:11.3pt;&quot;&gt;request.&lt;span style=&quot;color:#61afef;&quot;&gt;setAttribute&lt;/span&gt;&lt;span style=&quot;color:#e8ba36;&quot;&gt;(&lt;/span&gt;&lt;span style=&quot;color:#89ca78;&quot;&gt;&quot;deptList&quot;&lt;/span&gt;,depts&lt;span style=&quot;color:#e8ba36;&quot;&gt;)&lt;/span&gt;;&lt;/pre&gt;" style="text;html=1;strokeColor=none;fillColor=none;align=center;verticalAlign=middle;whiteSpace=wrap;rounded=0;" vertex="1" parent="1">
          <mxGeometry x="420" y="600" width="60" height="30" as="geometry" />
        </mxCell>
      </root>
    </mxGraphModel>
  </diagram>
</mxfile>
